<?xml version="1.0" encoding="UTF-8"?>
<svg viewBox="0 0 187.5 187.5" xmlns="http://www.w3.org/2000/svg">
 <g transform="matrix(.83316 0 0 .83316 420 -144.85)" stroke="#000">
  <path d="m-354 232.36-89 89-6.0849 22.709 21.6-5.7876 89.703-89.703s8.3064-7.9679 0-16.218c-7.8053-7.7527-15.833-0.36757-16.218 0z" fill="none" stroke-width="4.5"/>
  <path d="m-424.53 334.24s-4.6861 1.975-6.8272-0.24103-1.0877-6.71-1.0877-6.71-3.7968 1.9647-5.3451-0.25821-2.1789-3.4961-1.3558-5.7466 0.20192-3.2036 0.20192-3.2036" fill="none" stroke-width="2.2979"/>
  <path d="m-447.41 341.88 4.6919-4.0216" fill="none" stroke-width="6.25"/>
  <path d="m-432.14 327.46c4.3568-4.3568 93.838-92.497 93.838-92.497" fill="none" stroke-width="2.75"/>
  <path transform="matrix(.70879 .14408 .40256 .82549 -193.88 87.715)" d="m-335.39 238.29a8.4757 8.8793 0 1 1 -16.951 0 8.4757 8.8793 0 1 1 16.951 0z" stroke-linecap="round" stroke-linejoin="round" stroke-width="2.75"/>
 </g>
</svg>
