<?xml version="1.0" encoding="UTF-8" standalone="no"?>
<svg
   xmlns:dc="http://purl.org/dc/elements/1.1/"
   xmlns:cc="http://creativecommons.org/ns#"
   xmlns:rdf="http://www.w3.org/1999/02/22-rdf-syntax-ns#"
   xmlns:svg="http://www.w3.org/2000/svg"
   xmlns="http://www.w3.org/2000/svg"
   xmlns:xlink="http://www.w3.org/1999/xlink"
   id="svg5169"
   viewBox="-1.27293756 -1.27293756 44.97712712 44.97712712"
   height="768"
   width="768"
   version="1.0">
  <metadata
     id="metadata57">
    <rdf:RDF>
      <cc:Work
         rdf:about="">
        <dc:format>image/svg+xml</dc:format>
        <dc:type
           rdf:resource="http://purl.org/dc/dcmitype/StillImage" />
        <dc:title></dc:title>
      </cc:Work>
    </rdf:RDF>
  </metadata>
  <defs
     id="defs5171">
    <clipPath
       id="clipPath4409">
      <path
         id="path4411"
         d="M 73.381,96.337 L 107.325,96.337 L 107.325,125.475 L 73.381,125.475 L 73.381,96.337 z M 86.439,106.848 C 87.215,108.369 88.097,110.083 88.802,111.803 L 88.802,111.803 L 89.082,112.483 C 88.16,115.991 87.608,118.809 88.101,120.63 L 88.101,120.63 C 88.234,121.105 88.784,121.393 89.373,121.393 L 89.373,121.393 L 89.729,121.388 L 89.762,121.388 L 89.777,121.388 L 89.779,121.388 L 89.788,121.388 L 89.791,121.388 L 89.795,121.388 C 89.799,121.388 89.804,121.388 89.808,121.388 L 89.808,121.388 C 90.605,121.388 90.98,120.373 91.023,119.978 L 91.023,119.978 C 91.094,119.315 90.787,118.193 90.787,118.193 L 90.787,118.193 C 90.787,118.645 90.805,119.378 90.519,120.01 L 90.519,120.01 C 90.187,120.741 89.868,121.179 89.583,121.247 L 89.583,121.247 C 89.439,121.152 89.299,120.952 89.251,120.568 L 89.251,120.568 C 89.153,120.033 89.121,119.354 89.121,119.005 L 89.121,119.005 C 89.121,117.769 89.365,116.141 89.842,114.46 L 89.842,114.46 C 89.933,114.722 90.012,114.971 90.075,115.205 L 90.075,115.205 C 90.173,115.574 90.796,118.021 90.796,118.021 L 90.796,118.021 C 90.796,118.021 90.639,114.764 90.42,113.78 L 90.42,113.78 C 90.373,113.571 90.321,113.366 90.267,113.154 L 90.267,113.154 C 91.055,110.953 92.324,108.989 93.838,107.575 L 93.838,107.575 C 94.434,107.017 95.189,106.567 95.902,106.156 L 95.902,106.156 C 97.37,106.366 98.728,106.473 99.879,106.473 L 99.879,106.473 C 99.951,106.473 100.022,106.473 100.092,106.472 L 100.092,106.472 C 101.68,106.451 102.847,106.216 103.318,105.751 L 103.318,105.751 C 103.55,105.524 103.645,105.252 103.673,104.945 L 103.673,104.945 C 103.681,104.827 103.622,104.546 103.606,104.477 L 103.606,104.477 C 103.622,104.563 103.622,104.98 102.346,105.387 L 102.346,105.387 C 101.816,105.557 101.043,105.634 100.099,105.634 L 100.099,105.634 C 99.255,105.634 98.274,105.572 97.21,105.458 L 97.21,105.458 C 99.312,104.43 101.371,103.819 102.511,103.819 L 102.511,103.819 C 102.785,103.819 103.007,103.854 103.163,103.928 L 103.163,103.928 C 103.36,104.024 103.598,104.35 103.598,104.35 L 103.598,104.35 C 103.598,104.35 103.457,103.705 103.354,103.546 L 103.354,103.546 C 103.225,103.37 102.969,103.18 102.728,103.115 L 102.728,103.115 C 102.533,103.064 102.291,103.038 102.01,103.038 L 102.01,103.038 C 100.452,103.038 97.704,103.815 95.26,105.211 L 95.26,105.211 C 92.036,104.736 88.494,103.859 85.656,102.928 L 85.656,102.928 C 83.256,98.721 81.368,96.471 79.801,96.471 L 79.801,96.471 C 79.547,96.471 79.303,96.53 79.065,96.649 L 79.065,96.649 L 78.438,96.964 C 78.182,97.111 78.144,97.465 78.203,97.753 L 78.203,97.753 C 78.403,98.727 79.622,100.193 82.073,101.656 L 82.073,101.656 C 82.337,101.817 83.512,102.437 83.512,102.437 L 83.512,102.437 C 83.512,102.437 82.641,101.594 82.438,101.43 L 82.438,101.43 C 80.482,99.827 79.038,97.811 79.074,97.028 L 79.074,97.028 L 79.08,96.96 C 80.743,97.197 83.234,100.579 86.439,106.848 M 87.454,106.329 C 86.919,105.32 86.396,104.387 85.912,103.528 L 85.912,103.528 C 88.584,104.647 91.459,105.363 94.196,105.872 L 94.196,105.872 C 93.828,106.126 93.471,106.396 93.134,106.68 L 93.134,106.68 C 91.628,107.956 90.478,109.546 89.647,111.222 L 89.647,111.222 C 89.118,109.799 88.489,108.288 87.454,106.329" />
    </clipPath>
    <clipPath
       id="clipPath4421">
      <path
         id="path4423"
         d="M 73.381,91.53 L 107.325,91.53 L 107.325,96.405 L 73.381,96.405 L 73.381,91.53 z" />
    </clipPath>
    <clipPath
       id="clipPath4433">
      <path
         id="path4435"
         d="M 88.101,120.63 C 87.608,118.809 88.16,115.991 89.082,112.483 L 89.082,112.483 L 88.802,111.803 C 88.097,110.083 87.215,108.369 86.439,106.848 L 86.439,106.848 C 83.234,100.579 80.743,97.197 79.08,96.96 L 79.08,96.96 L 79.074,97.028 C 79.038,97.811 80.482,99.827 82.438,101.43 L 82.438,101.43 C 82.641,101.594 83.512,102.437 83.512,102.437 L 83.512,102.437 C 83.512,102.437 82.337,101.817 82.073,101.656 L 82.073,101.656 C 79.622,100.193 78.403,98.727 78.203,97.753 L 78.203,97.753 C 78.144,97.465 78.182,97.111 78.438,96.964 L 78.438,96.964 L 79.065,96.649 C 79.303,96.53 79.547,96.471 79.801,96.471 L 79.801,96.471 C 81.368,96.471 83.256,98.721 85.656,102.928 L 85.656,102.928 C 88.494,103.859 92.036,104.736 95.26,105.211 L 95.26,105.211 C 97.704,103.815 100.452,103.038 102.01,103.038 L 102.01,103.038 C 102.291,103.038 102.533,103.064 102.728,103.115 L 102.728,103.115 C 102.969,103.18 103.225,103.37 103.354,103.546 L 103.354,103.546 C 103.457,103.705 103.598,104.35 103.598,104.35 L 103.598,104.35 C 103.598,104.35 103.36,104.024 103.163,103.928 L 103.163,103.928 C 103.007,103.854 102.785,103.819 102.511,103.819 L 102.511,103.819 C 101.371,103.819 99.312,104.43 97.21,105.458 L 97.21,105.458 C 98.274,105.572 99.255,105.634 100.099,105.634 L 100.099,105.634 C 101.043,105.634 101.816,105.557 102.346,105.387 L 102.346,105.387 C 103.622,104.98 103.622,104.563 103.606,104.477 L 103.606,104.477 C 103.622,104.546 103.681,104.827 103.673,104.945 L 103.673,104.945 C 103.645,105.252 103.55,105.524 103.318,105.751 L 103.318,105.751 C 102.847,106.216 101.68,106.451 100.092,106.472 L 100.092,106.472 C 100.022,106.473 99.951,106.473 99.879,106.473 L 99.879,106.473 C 98.728,106.473 97.37,106.366 95.902,106.156 L 95.902,106.156 C 95.189,106.567 94.434,107.017 93.838,107.575 L 93.838,107.575 C 92.324,108.989 91.055,110.953 90.267,113.154 L 90.267,113.154 C 90.321,113.366 90.373,113.571 90.42,113.78 L 90.42,113.78 C 90.639,114.764 90.796,118.021 90.796,118.021 L 90.796,118.021 C 90.796,118.021 90.173,115.574 90.075,115.205 L 90.075,115.205 C 90.012,114.971 89.933,114.722 89.842,114.46 L 89.842,114.46 C 89.365,116.141 89.121,117.769 89.121,119.005 L 89.121,119.005 C 89.121,119.354 89.153,120.033 89.251,120.568 L 89.251,120.568 C 89.299,120.952 89.439,121.152 89.583,121.247 L 89.583,121.247 C 89.868,121.179 90.187,120.741 90.519,120.01 L 90.519,120.01 C 90.805,119.378 90.787,118.645 90.787,118.193 L 90.787,118.193 C 90.787,118.193 91.094,119.315 91.023,119.978 L 91.023,119.978 C 90.98,120.373 90.605,121.388 89.808,121.388 L 89.808,121.388 C 89.804,121.388 89.799,121.388 89.795,121.388 L 89.795,121.388 L 89.791,121.388 L 89.788,121.388 L 89.779,121.388 L 89.777,121.388 L 89.762,121.388 L 89.729,121.388 L 89.373,121.393 C 88.784,121.393 88.234,121.105 88.101,120.63 M 87.454,106.329 C 88.489,108.288 89.118,109.799 89.647,111.222 L 89.647,111.222 C 90.478,109.546 91.628,107.956 93.134,106.68 L 93.134,106.68 C 93.471,106.396 93.828,106.126 94.196,105.872 L 94.196,105.872 C 91.459,105.363 88.584,104.647 85.912,103.528 L 85.912,103.528 C 86.396,104.387 86.919,105.32 87.454,106.329" />
    </clipPath>
    <radialGradient
       spreadMethod="pad"
       gradientTransform="matrix(45.124908,0,0,-45.124908,74.972946,125.50104)"
       gradientUnits="userSpaceOnUse"
       id="radialGradient4453"
       fy="0"
       fx="0"
       r="1"
       cy="0"
       cx="0">
      <stop
         offset="0"
         style="stop-color:#ffffff;stop-opacity:1"
         id="stop4455" />
      <stop
         offset="0.80999798"
         style="stop-color:#ebeaea;stop-opacity:1"
         id="stop4457" />
      <stop
         offset="0.80999798"
         style="stop-color:#ebeaea;stop-opacity:1"
         id="stop4459" />
      <stop
         offset="1"
         style="stop-color:#d4d3d4;stop-opacity:1"
         id="stop4461" />
    </radialGradient>
    <clipPath
       id="clipPath4469">
      <path
         id="path4471"
         d="M 72.143,83.228 L 118.5,83.228 L 118.5,127.8 L 72.143,127.8 L 72.143,83.228 z" />
    </clipPath>
    <radialGradient
       spreadMethod="pad"
       gradientTransform="matrix(56.406135,0,0,56.406135,1.9125151,-0.70462656)"
       gradientUnits="userSpaceOnUse"
       xlink:href="#radialGradient4453"
       id="radialGradient8118"
       fy="0"
       fx="0"
       r="1"
       cy="0"
       cx="0" />
  </defs>
  <g
     transform="matrix(1.25,0,0,-1.25,-143.9093,156.84375)"
     id="g4405">
    <g
       clip-path="url(#clipPath4409)"
       id="g4407">
      <g
         transform="matrix(34.051544,0,0,29.204712,73.327072,96.323547)"
         id="g4413" />
    </g>
  </g>
  <g
     transform="matrix(1.25,0,0,-1.25,-143.9093,156.84375)"
     id="g4417">
    <g
       clip-path="url(#clipPath4421)"
       id="g4419">
      <g
         transform="matrix(34.051544,0,0,4.936203,73.327072,91.47673)"
         id="g4425" />
    </g>
  </g>
  <g
     transform="matrix(1.25,0,0,-1.25,-143.9093,156.84375)"
     id="g4429">
    <g
       clip-path="url(#clipPath4433)"
       id="g4431">
      <g
         transform="matrix(25.629761,0,0,25.011002,78.105164,96.426697)"
         id="g4437" />
    </g>
  </g>
  <g
     transform="matrix(1.25,0,0,-1.25,-143.9093,156.84375)"
     id="g4441">
    <g
       id="g4443">
      <g
         id="g4449">
        <g
           id="g4451" />
      </g>
    </g>
  </g>
  <path
     style="fill:url(#radialGradient8118);stroke:none;stroke-width:1.25"
     id="path4463"
     d="M -0.07741788,41.759178 H 42.352582 V -0.67207156 H -0.07741788 Z M 16.245084,22.611678 c 0.97,-1.90125 2.0725,-4.04375 2.955,-6.195 v 0 l 0.34875,-0.84875 c -1.1525,-4.38625 -1.84375,-7.907499 -1.22625,-10.1837493 v 0 c 0.16625,-0.5937504 0.85375,-0.9537504 1.58875,-0.9537504 v 0 l 0.4475,0.00625 h 0.0825 c 1.00625,-0.015 1.48,1.2650004 1.53375,1.7625004 v 0 c 0.08875,0.82875 -0.295,2.2312503 -0.295,2.2312503 v 0 c 0,-0.56625 0.0225,-1.4812503 -0.335,-2.2712503 v 0 c -0.41625,-0.9137504 -0.81375,-1.4600004 -1.17,-1.5462504 v 0 c -0.18,0.12 -0.355,0.36875 -0.415,0.8475004 v 0 c -0.12375,0.67125 -0.16125,1.51875 -0.16125,1.9550003 v 0 c 0,1.54375 0.30375,3.579999 0.90125,5.679999 v 0 c 0.1125,-0.325 0.21125,-0.6375 0.29,-0.93 v 0 c 0.1225,-0.46125 0.90125,-3.518749 0.90125,-3.518749 v 0 c 0,0 -0.19625,4.069999 -0.47,5.301249 v 0 c -0.05875,0.26 -0.12375,0.5175 -0.19125,0.78125 v 0 c 0.985,2.75125 2.57125,5.20625 4.463749,6.97375 v 0 c 0.74625,0.6975 1.68875,1.26 2.58125,1.7725 v 0 c 1.947499,-0.27875 3.741249,-0.41 5.237499,-0.39375 v 0 c 1.985,0.02625 3.4425,0.32 4.0325,0.90125 v 0 c 0.28875,0.2825 0.40625,0.62375 0.4425,1.00625 v 0 c 0.0087,0.14875 -0.06375,0.49875 -0.085,0.58625 v 0 c 0.02125,-0.10625 0.02125,-0.62875 -1.5725,-1.1375 v 0 c -1.255,-0.40125 -3.60375,-0.38875 -6.4225,-0.08875 v 0 c 3.26,1.595 6.43625,2.3875 7.4425,1.9125 v 0 c 0.24625,-0.12 0.545,-0.52875 0.545,-0.52875 v 0 c 0,0 -0.1775,0.80625 -0.305,1.0075 v 0 c -0.1625,0.21875 -0.48125,0.45625 -0.78375,0.53625 v 0 c -1.59,0.42375 -5.7275,-0.5575 -9.334999,-2.61875 v 0 c -4.029999,0.59375 -8.456249,1.69 -12.003749,2.85375 v 0 c -3.48625,6.11 -6.1075009,8.91625 -8.2400009,7.84875 v 0 l -0.78375,-0.39375 c -0.31875,-0.1825 -0.3675,-0.62625 -0.29375,-0.9875 v 0 c 0.24875,-1.21625 1.77375,-3.04875 4.8375009,-4.8775 v 0 c 0.33,-0.2 1.79875,-0.97625 1.79875,-0.97625 v 0 c 0,0 -1.0875,1.0525 -1.3425,1.25875 v 0 c -2.4450009,2.00375 -4.2500009,4.525 -4.2050009,5.5025 v 0 l 0.0087,0.085 c 2.0775,-0.29625 5.1925009,-4.52375 9.1975009,-12.36 m 1.26875,0.65 c -0.66875,1.26 -1.3225,2.4275 -1.92625,3.5 v 0 c 3.33875,-1.39875 6.9325,-2.29375 10.353749,-2.93 v 0 c -0.46,-0.3175 -0.90625,-0.65375 -1.326249,-1.00875 v 0 c -1.88375,-1.595 -3.32,-3.585 -4.36125,-5.67875 v 0 c -0.66,1.77875 -1.445,3.66875 -2.74,6.1175" />
  <g
     transform="translate(-47.333767,-2.6135209)"
     id="g108">
    <path
       id="rect59-7"
       style="opacity:1;vector-effect:none;fill:#808080;fill-opacity:1;stroke:none;stroke-width:0.03797797px;stroke-linecap:butt;stroke-linejoin:miter;stroke-miterlimit:4;stroke-dasharray:none;stroke-dashoffset:0;stroke-opacity:1"
       d="m 67.558082,19.434596 c 1.04125,2.09375 2.47755,4.083761 4.3613,5.67876 0.419999,0.355001 0.866267,0.691242 1.326267,1.008742 -3.421248,0.63625 -7.015062,1.531164 -10.353812,2.929914 0.60375,-1.0725 1.25757,-2.239998 1.92632,-3.499997 1.295,-2.44875 2.079925,-4.338669 2.739925,-6.117419 z M 67.21562,6.7208399 c -0.735,0 -1.349814,0.4809691 -1.516064,1.0747199 -0.6175,2.2762492 0.0011,5.6764782 1.153585,10.0627282 l -0.348753,0.848834 c -0.8825,2.15125 -1.984964,4.29372 -2.954965,6.19497 -4.005,7.83625 -7.120016,12.063721 -9.197516,12.359971 l -0.0087,-0.08499 c -0.045,-0.9775 1.759939,-3.498746 4.204939,-5.502496 0.255,-0.20625 1.606273,-0.979548 1.606273,-0.979548 0,0 -1.732546,0.497022 -2.062546,0.697022 -3.06375,1.828751 -4.588725,3.66126 -4.837475,4.87751 -0.07375,0.36125 -0.02502,0.804966 0.293734,0.987466 l 0.783751,0.39382 c 2.1325,1.0675 4.753769,-1.73883 8.240019,-7.84883 3.5475,-1.16375 7.973784,-2.259985 12.003783,-2.853735 3.6075,2.06125 7.745004,3.042543 9.335004,2.618793 0.302501,-0.08 0.621251,-0.317477 0.783752,-0.536227 0.560655,-0.363682 0.644255,-0.895757 0.619534,-0.886487 0,0 -0.61326,0.287681 -0.85951,0.407681 -1.00625,0.475 -4.182542,-0.317479 -7.442542,-1.912479 2.81875,-0.3 5.167477,-0.312489 6.422477,0.08876 1.59375,0.50875 1.811577,1.055485 1.790327,1.161735 0.02125,-0.0875 -0.124103,-0.461775 -0.132803,-0.610525 -0.03625,-0.3825 -0.153798,-0.723725 -0.442547,-1.006225 -0.590001,-0.58125 -2.04745,-0.874972 -4.03245,-0.901222 -1.49625,-0.01625 -3.289972,0.114956 -5.237471,0.393706 -0.892501,-0.5125 -1.835026,-1.074975 -2.581276,-1.772475 -1.892498,-1.7675 -3.478787,-4.222552 -4.463786,-6.973802 0.0675,-0.26375 0.132497,-0.521234 0.191247,-0.781234 0.273751,-1.23125 0.75796,-5.31234 0.75796,-5.31234 0,0 -1.066683,3.068664 -1.189183,3.529914 -0.07875,0.2925 -0.17746,0.604931 -0.28996,0.929931 -0.5975,-2.099999 -0.901336,-4.136268 -0.901336,-5.6800179 0,-0.43625 0.03753,-1.2836653 0.16128,-1.9549156 0.06,-0.4787504 0.259179,-0.6065796 0.43918,-0.7265795 0.356249,0.086249 0.729572,0.5115936 1.145821,1.4253437 0.357501,0.7900004 0.625419,1.8743293 0.625419,2.4405783 0,0 0.09335,-1.5719083 0.0046,-2.4006587 -0.05375,-0.4974958 -0.527511,-1.7775196 -1.533761,-1.7625196 h -0.08247 z" />
    <path
       id="rect59-7-8"
       style="opacity:1;vector-effect:none;fill:#d40000;fill-opacity:1;stroke:none;stroke-width:0.03797797px;stroke-linecap:butt;stroke-linejoin:miter;stroke-miterlimit:4;stroke-dasharray:none;stroke-dashoffset:0;stroke-opacity:1"
       d="m 67.821845,19.713829 c 1.04125,2.093751 2.47755,4.083762 4.361301,5.678761 0.419998,0.355001 0.866266,0.691242 1.326266,1.008741 -3.421248,0.636251 -7.015062,1.531165 -10.353811,2.929915 0.60375,-1.0725 1.257569,-2.239998 1.926319,-3.499997 1.295001,-2.44875 2.079925,-4.338669 2.739925,-6.11742 z M 67.479383,7.0000738 c -0.735,0 -1.422411,0.3599728 -1.588662,0.9537236 -0.6175,2.2762496 0.07368,5.7974746 1.226184,10.1837246 l -0.348754,0.848833 c -0.882499,2.151251 -1.984964,4.293721 -2.954964,6.194971 -4.005,7.83625 -7.120016,12.063721 -9.197516,12.359971 l -0.0087,-0.08499 c -0.045,-0.9775 1.759939,-3.498746 4.204939,-5.502497 0.255,-0.206249 1.342509,-1.258781 1.342509,-1.258781 0,0 -1.468782,0.776256 -1.798782,0.976256 -3.06375,1.828751 -4.588725,3.66126 -4.837475,4.87751 -0.07375,0.36125 -0.02502,0.804966 0.293734,0.987466 l 0.783751,0.39382 c 2.1325,1.0675 4.753769,-1.73883 8.240019,-7.84883 3.547499,-1.16375 7.973783,-2.259985 12.003783,-2.853735 3.6075,2.06125 7.745003,3.042543 9.335003,2.618793 0.302502,-0.08 0.621252,-0.317477 0.783753,-0.536227 0.127499,-0.201249 0.304943,-1.007483 0.304943,-1.007483 0,0 -0.298669,0.408677 -0.544919,0.528677 -1.00625,0.475 -4.182543,-0.317479 -7.442542,-1.912479 2.81875,-0.3 5.167476,-0.312489 6.422476,0.08876 1.593751,0.50875 1.593785,1.031286 1.572534,1.137536 0.02125,-0.0875 0.09369,-0.437576 0.08499,-0.586326 -0.03625,-0.3825 -0.153799,-0.723725 -0.442547,-1.006225 -0.590002,-0.58125 -2.04745,-0.874972 -4.03245,-0.901222 -1.49625,-0.01625 -3.289972,0.114955 -5.237471,0.393706 -0.892502,-0.5125 -1.835027,-1.074975 -2.581276,-1.772475 -1.892498,-1.7675 -3.478788,-4.222552 -4.463786,-6.973802 0.0675,-0.26375 0.132497,-0.521234 0.191246,-0.781234 0.273752,-1.23125 0.469999,-5.301183 0.469999,-5.301183 0,0 -0.778722,3.057507 -0.901222,3.518757 -0.07875,0.2925 -0.17746,0.604931 -0.28996,0.929931 -0.597499,-2.099999 -0.901336,-4.136268 -0.901336,-5.6800179 0,-0.43625 0.03753,-1.2836653 0.16128,-1.9549156 0.06,-0.4787505 0.234981,-0.727576 0.414982,-0.8475759 0.356248,0.086249 0.753771,0.6325899 1.170019,1.54634 0.357502,0.7900005 0.335028,1.7049344 0.335028,2.2711834 0,0 0.383744,-1.4025133 0.294992,-2.2312638 -0.05375,-0.4974958 -0.527511,-1.7775196 -1.533761,-1.7625196 h -0.08247 z" />
  </g>
  <g
     transform="translate(-7.865797,-2.0522759)"
     id="g116">
    <g
       id="g4465"
       transform="matrix(1.25,0,0,-1.25,-83.676523,158.07145)"
       style="fill:#808080">
      <g
         id="g4467"
         clip-path="url(#clipPath4469)"
         style="fill:#808080">
        <g
           id="g4473"
           transform="translate(103.0288,102.0478)"
           style="fill:#808080">
          <path
             style="fill:#808080;fill-opacity:1;fill-rule:nonzero;stroke:none"
             id="path4475"
             d="M 0,0 H 0.075 C 0.158,0 0.229,0.025 0.229,0.097 0.229,0.154 0.193,0.194 0.086,0.194 0.043,0.194 0.018,0.19 0,0.186 Z m 0,-0.336 h -0.111 v 0.598 c 0.061,0.01 0.125,0.017 0.208,0.017 0.1,0 0.15,-0.017 0.189,-0.046 C 0.322,0.208 0.347,0.161 0.347,0.107 0.347,0.032 0.294,-0.014 0.229,-0.036 V -0.043 C 0.283,-0.064 0.312,-0.111 0.33,-0.186 0.347,-0.279 0.358,-0.315 0.373,-0.336 H 0.258 C 0.24,-0.315 0.226,-0.261 0.211,-0.179 0.197,-0.114 0.158,-0.086 0.072,-0.086 H 0 Z m 0.1,0.784 c -0.258,0 -0.454,-0.212 -0.454,-0.469 0,-0.265 0.196,-0.473 0.461,-0.473 0.258,-0.004 0.448,0.208 0.448,0.469 0,0.261 -0.19,0.473 -0.451,0.473 z m 0.007,0.1 c 0.323,0 0.577,-0.251 0.577,-0.569 0,-0.326 -0.254,-0.577 -0.58,-0.577 -0.326,0 -0.584,0.251 -0.584,0.577 0,0.318 0.258,0.569 0.584,0.569 z" />
        </g>
        <g
           id="g4477"
           transform="translate(93.1343,106.6789)"
           style="fill:#808080">
          <path
             style="fill:#808080;fill-opacity:1;fill-rule:evenodd;stroke:none"
             id="path4479"
             d="M 0,0 C -1.507,1.276 -2.655,2.868 -3.488,4.543 -4.016,3.12 -4.645,1.609 -5.68,-0.351 c -0.535,-1.008 -1.059,-1.942 -1.542,-2.8 0.035,0.015 0.07,0.028 0.105,0.043 0.454,0.807 0.94,1.677 1.437,2.614 1.035,1.959 1.664,3.471 2.192,4.894 0.833,-1.675 1.981,-3.267 3.488,-4.543 0.288,-0.243 0.593,-0.472 0.904,-0.693 0.053,0.01 0.105,0.02 0.157,0.03 C 0.693,-0.553 0.337,-0.283 0,0" />
        </g>
        <g
           id="g4481"
           transform="translate(89.5837,121.1037)"
           style="fill:#808080">
          <path
             style="fill:#808080;fill-opacity:1;fill-rule:evenodd;stroke:none"
             id="path4483"
             d="M 0,0 C 0.284,-0.069 0.603,-0.506 0.935,-1.236 1.183,-1.783 1.202,-2.402 1.203,-2.853 1.204,-2.397 1.21,-1.701 0.935,-1.093 0.603,-0.362 0.284,0.074 0,0.143 -0.145,0.047 -0.285,-0.152 -0.332,-0.534 c -0.099,-0.537 -0.13,-1.216 -0.13,-1.564 0,-0.022 0,-0.045 0,-0.068 0.004,0.364 0.037,0.987 0.13,1.488 C -0.285,-0.295 -0.145,-0.096 0,0" />
        </g>
        <g
           id="g4485"
           transform="translate(90.7867,118.05)"
           style="fill:#808080">
          <path
             style="fill:#808080;fill-opacity:1;fill-rule:evenodd;stroke:none"
             id="path4487"
             d="M 0,0 C 0,0 0.265,0.965 0.246,1.634 0.229,0.981 0.002,0.151 0,0.144 0,0.094 0,0.045 0,0" />
        </g>
        <g
           id="g4489"
           transform="translate(79.0737,97.0284)"
           style="fill:#808080">
          <path
             style="fill:#808080;fill-opacity:1;fill-rule:evenodd;stroke:none"
             id="path4491"
             d="m 0,0 0.004,-0.039 c 0.082,0.845 1.485,2.761 3.36,4.297 0.204,0.165 1.075,1.007 1.075,1.007 0,0 -0.14,-0.074 -0.333,-0.176 C 3.837,4.832 3.485,4.499 3.364,4.402 1.408,2.799 -0.036,0.782 0,0" />
        </g>
        <g
           id="g4493"
           transform="translate(103.6056,104.4777)"
           style="fill:#808080">
          <path
             style="fill:#808080;fill-opacity:1;fill-rule:evenodd;stroke:none"
             id="path4495"
             d="m 0,0 c 0.016,0.085 0.016,0.503 -1.259,0.91 -1.004,0.32 -2.883,0.31 -5.137,0.071 0.082,-0.04 0.164,-0.08 0.245,-0.118 2.145,0.214 3.925,0.212 4.892,-0.097 C 0.016,0.359 0.016,-0.059 0,-0.143 0.016,-0.074 0.075,0.206 0.067,0.325 L 0.063,0.363 C 0.049,0.229 0.012,0.053 0,0" />
        </g>
        <g
           id="g4497"
           transform="translate(103.3549,103.5452)"
           style="fill:#808080">
          <path
             style="fill:#808080;fill-opacity:1;fill-rule:evenodd;stroke:none"
             id="path4499"
             d="m 0,0 c -0.13,-0.176 -0.385,-0.365 -0.627,-0.43 -1.272,-0.338 -4.582,0.447 -7.468,2.096 -3.224,-0.476 -6.765,-1.352 -9.604,-2.283 -2.788,-4.889 -4.885,-7.133 -6.591,-6.279 l -0.627,0.315 c -0.169,0.096 -0.242,0.284 -0.255,0.484 -0.016,-0.248 0.046,-0.508 0.255,-0.628 l 0.627,-0.315 c 1.706,-0.853 3.803,1.391 6.591,6.279 2.839,0.931 6.38,1.808 9.604,2.283 2.886,-1.648 6.196,-2.433 7.468,-2.095 0.242,0.065 0.497,0.254 0.627,0.43 0.102,0.16 0.244,0.805 0.244,0.805 0,0 -0.019,-0.026 -0.049,-0.063 C 0.145,0.396 0.064,0.101 0,0" />
        </g>
        <g
           id="g4501"
           transform="translate(89.0824,112.4828)"
           style="fill:#808080">
          <path
             style="fill:#808080;fill-opacity:1;fill-rule:evenodd;stroke:none"
             id="path4503"
             d="m 0,0 c -0.68,2.587 -1.157,4.795 -1.164,6.508 -0.02,-1.713 0.455,-3.943 1.141,-6.563 z" />
        </g>
        <g
           id="g4505"
           transform="translate(90.7954,117.8767)"
           style="fill:#808080">
          <path
             style="fill:#808080;fill-opacity:1;fill-rule:evenodd;stroke:none"
             id="path4507"
             d="m 0,0 c 0,0 -0.003,-0.013 -0.009,-0.036 -0.036,-0.691 -0.178,-3.215 -0.366,-4.062 -0.047,-0.207 -0.099,-0.414 -0.153,-0.624 0.006,-0.019 0.014,-0.038 0.021,-0.057 0.046,0.18 0.091,0.359 0.132,0.538 C -0.156,-3.256 0,0 0,0" />
        </g>
      </g>
    </g>
    <path
       d="m 45.109477,30.52045 h 0.09375 c 0.10375,0 0.1925,-0.03125 0.1925,-0.12125 0,-0.07125 -0.045,-0.12125 -0.17875,-0.12125 -0.05375,0 -0.085,0.005 -0.1075,0.01 z m 0,0.42 h -0.13875 v -0.7475 c 0.07625,-0.0125 0.15625,-0.02125 0.26,-0.02125 0.125,0 0.1875,0.02125 0.23625,0.0575 0.045,0.03125 0.07625,0.09 0.07625,0.1575 0,0.09375 -0.06625,0.15125 -0.1475,0.17875 v 0.0087 c 0.0675,0.02625 0.10375,0.085 0.12625,0.17875 0.02125,0.11625 0.035,0.16125 0.05375,0.1875 h -0.14375 c -0.0225,-0.02625 -0.04,-0.09375 -0.05875,-0.19625 -0.0175,-0.08125 -0.06625,-0.11625 -0.17375,-0.11625 h -0.09 z m 0.125,-0.98 c -0.3225,0 -0.5675,0.265 -0.5675,0.58625 0,0.33125 0.245,0.59125 0.57625,0.59125 0.3225,0.005 0.56,-0.26 0.56,-0.58625 0,-0.32625 -0.2375,-0.59125 -0.56375,-0.59125 z m 0.0087,-0.125 c 0.40375,0 0.72125,0.31375 0.72125,0.71125 0,0.4075 -0.3175,0.72125 -0.725,0.72125 -0.4075,0 -0.73,-0.31375 -0.73,-0.72125 0,-0.3975 0.3225,-0.71125 0.73,-0.71125 z"
       id="path3427"
       style="fill:#ed1c24;fill-opacity:1;fill-rule:nonzero;stroke:none;stroke-width:1.25" />
  </g>
</svg>
