<svg viewBox="0 0 187.5 187.5" xmlns="http://www.w3.org/2000/svg">
    <g stroke="#000">
        <path d="M125.061 48.743l-74.15 74.151-5.07 18.92 17.996-4.821 74.737-74.737s6.92-6.639 0-13.513c-6.503-6.459-13.192-.306-13.513 0z" fill="none" stroke-width="3.74922"/>
        <path d="M66.299 133.625s-3.905 1.646-5.689-.2-.906-5.59-.906-5.59-3.163 1.636-4.453-.216-1.815-2.913-1.13-4.788.169-2.669.169-2.669" fill="none" stroke-width="1.91460168"/>
        <path d="M47.236 139.99l3.909-3.35" fill="none" stroke-width="5.20725"/>
        <path d="M59.958 127.977c3.63-3.63 78.182-77.065 78.182-77.065" fill="none" stroke-width="2.29119"/>
        <path transform="matrix(.59054 .12004 .3354 .68777 258.467 -71.77)" d="M-335.39 238.29a8.476 8.88 0 11-16.951 0 8.476 8.88 0 1116.951 0z" stroke-linecap="round" stroke-linejoin="round" stroke-width="2.75"/>
    </g>
</svg>
