<svg xmlns="http://www.w3.org/2000/svg" viewBox="0 0 490 490">
    <path d="M412.197 381.792l-92.789-173.69V58.072h22.474c16.035 0 29.035-13 29.035-29.036S357.917 0 341.881 0H147.378v.019c-15.691.396-28.293 13.23-28.293 29.017s12.601 28.622 28.293 29.018v.019h23.216v150.029l-92.79 173.693c-12.108 22.66-11.423 50.431 1.789 72.473C92.809 476.309 116.981 490 142.676 490h204.649c25.694 0 49.866-13.69 63.08-35.728 13.215-22.043 13.9-49.815 1.792-72.48zm-18.943 62.194C383.632 460.031 366.035 470 347.326 470h-204.65c-18.708 0-36.307-9.967-45.93-26.016-9.62-16.049-10.118-36.268-1.303-52.766l95.149-178.11V58.072h108.814v155.036l95.148 178.108c8.819 16.503 8.321 36.722-1.3 52.77z"/>
    <path d="M248.872 241.646c12.436-3.559 19.635-16.524 16.075-28.962-3.558-12.438-16.524-19.636-28.957-16.077-12.439 3.559-19.637 16.524-16.079 28.963 3.558 12.436 16.525 19.635 28.961 16.076zM280.07 131.176c10.409-2.979 16.435-13.83 13.457-24.237-2.98-10.409-13.832-16.432-24.242-13.454-10.406 2.978-16.429 13.828-13.455 24.238 2.98 10.408 13.833 16.431 24.24 13.453zM308.195 273.835H181.807l-68.723 128.643a33.548 33.548 0 0029.591 49.358h204.649a33.55 33.55 0 0029.591-49.358l-68.72-128.643zM303.8 385.211c-19.918 5.697-40.684-5.828-46.381-25.745-5.698-19.917 5.827-40.681 25.744-46.378 19.918-5.699 40.684 5.828 46.379 25.744 5.701 19.915-5.825 40.68-25.742 46.379z"/>
</svg>
