<svg xmlns="http://www.w3.org/2000/svg" width="600" height="600">
    <path d="M171.932 82.625L577.104 0v112.988l-405.172 82.626z"/>
    <path d="M171.932 82.538h65.23v422.367h-65.23z"/>
    <path d="M235.042 488.204c11.655 43.498-25.912 91.357-83.91 106.898-57.996 15.54-114.46-7.124-126.116-50.622-11.655-43.498 25.913-91.357 83.91-106.898 57.997-15.54 114.46 7.124 126.116 50.622zM511.874 13.54h65.23v422.367h-65.23z"/>
    <path d="M574.984 419.207c11.655 43.498-25.913 91.357-83.91 106.898-57.997 15.54-114.46-7.124-126.116-50.622-11.655-43.498 25.912-91.358 83.91-106.898 57.996-15.54 114.46 7.124 126.116 50.622z"/>
</svg>
