<svg xmlns="http://www.w3.org/2000/svg" xmlns:xlink="http://www.w3.org/1999/xlink" viewBox="0 0 128 128">
    <defs>
        <linearGradient id="a">
            <stop stop-color="#a1a200"/>
            <stop offset="1" stop-color="#ddd300"/>
        </linearGradient>
        <linearGradient y1="119.3" x2="0" y2="5.262" id="c" xlink:href="#a" gradientUnits="userSpaceOnUse"/>
        <filter x="-.034" y="-.712" width="1.069" height="2.423" color-interpolation-filters="sRGB" id="b">
            <feGaussianBlur stdDeviation="1.37"/>
        </filter>
        <filter x="-.243" y="-.171" width="1.486" height="1.342" color-interpolation-filters="sRGB" id="d">
            <feGaussianBlur stdDeviation=".917"/>
        </filter>
    </defs>
    <rect width="95.55" height="4.621" x="16.224" y="114.99" opacity=".182" filter="url(#b)" rx="2.311"/>
    <rect width="91.48" height="114.03" x="18.402" y="5.262" fill="url(#c)" rx="12.432"/>
    <path d="M58.163 5.257v60.906c0 3.122 2.504 5.656 5.625 5.656h.157c3.121 0 5.625-2.534 5.625-5.656V5.257H58.163z" fill="#323232"/>
    <path d="M30.82 5.257c-2.79 0-5.337.928-7.407 2.469h81.469a12.432 12.432 0 00-7.437-2.47H30.82z" opacity=".468"/>
    <path fill="#ddd" d="M60.934 8.263h6.01v2.977h-6.01zM62.97 11.277h3.971v1.963H62.97zM62.97 15.29h3.971v1.963H62.97zM62.97 19.283h3.971v1.963H62.97zM62.97 23.283h3.971v1.963H62.97zM62.97 27.28h3.971v1.963H62.97zM62.97 31.28h3.971v1.963H62.97zM62.97 35.28h3.971v1.963H62.97zM62.97 39.28h3.971v1.963H62.97zM62.97 43.28h3.971v1.963H62.97zM62.97 47.28h3.971v1.963H62.97zM62.97 51.28h3.971v1.963H62.97zM62.97 55.28h3.971v1.963H62.97zM62.97 59.28h3.971v1.963H62.97zM62.97 63.28h3.971v1.963H62.97zM61.07 13.29h3.971v1.963H61.07zM61.07 17.283h3.971v1.963H61.07zM61.07 21.283h3.971v1.963H61.07zM61.07 25.283h3.971v1.963H61.07zM61.07 29.28h3.971v1.963H61.07zM61.07 33.28h3.971v1.963H61.07zM61.07 37.28h3.971v1.963H61.07zM61.07 41.28h3.971v1.963H61.07zM61.07 45.28h3.971v1.963H61.07zM61.07 49.28h3.971v1.963H61.07zM61.07 53.28h3.971v1.963H61.07zM61.07 57.28h3.971v1.963H61.07zM61.07 61.28h3.971v1.963H61.07z"/>
    <path fill="#323232" d="M60.934 10.179h6.01v1.061h-6.01zM62.97 12.287h3.971v.953H62.97zM62.97 16.265h3.971v.988H62.97zM62.97 20.259h3.971v.988H62.97zM62.97 24.294h3.971v.953H62.97zM62.97 28.26h3.971v.988H62.97zM62.97 32.26h3.971v.988H62.97zM62.97 36.29h3.971v.953H62.97zM62.97 40.26h3.971v.988H62.97zM62.97 44.29h3.971v.953H62.97zM62.97 48.29h3.971v.953H62.97zM62.97 52.29h3.971v.953H62.97zM62.97 56.33h3.971v.918H62.97zM62.97 60.29h3.971v.953H62.97zM62.97 64.29h3.971v.953H62.97zM61.07 14.265h3.971v.988H61.07zM61.07 18.259h3.971v.988H61.07zM61.07 22.259h3.971v.988H61.07zM61.07 26.294h3.971v.953H61.07zM61.07 30.26h3.971v.988H61.07zM61.07 34.26h3.971v.988H61.07zM61.07 38.26h3.971v.988H61.07zM61.07 42.22h3.971v1.023H61.07zM61.07 46.26h3.971v.988H61.07zM61.07 50.29h3.971v.953H61.07zM61.07 54.22h3.971v1.023H61.07zM61.07 58.29h3.971v.953H61.07zM61.07 62.29h3.971v.953H61.07z"/>
    <path fill="#ddd" d="M60.964 65.28h6.03v4.01h-6.03z"/>
    <path opacity=".5" fill="#323232" d="M62.829 8.304h2.561v56.87h-2.561z"/>
    <path d="M61.406 74.594c-1.174 1.278-1.937 3.413-1.937 5.812 0 3.904 2.023 7.063 4.531 7.063 2.508 0 4.531-3.159 4.531-7.063 0-2.08-.55-3.956-1.469-5.25-.429 1.246-1.495 2.125-2.75 2.125-1.428 0-2.63-1.165-2.906-2.687z" transform="matrix(1.19244 0 0 1.47992 -12.34 -41.222)" opacity=".4" filter="url(#d)"/>
    <path d="M59.882 69.12v12.97c0 3.119 1.826 5.636 4.094 5.636 2.267 0 4.094-2.517 4.094-5.636V69.12h-8.188zm4.188 3.727c1.04 0 1.875.884 1.875 1.968s-.834 1.968-1.875 1.968c-1.042 0-1.875-.884-1.875-1.968s.833-1.968 1.875-1.968z" fill="#ddd"/>
</svg>
