<svg xmlns="http://www.w3.org/2000/svg" xmlns:xlink="http://www.w3.org/1999/xlink" viewBox="-1.273 -1.273 44.977 44.977" height="768" width="768" version="1.0">
    <defs>
        <clipPath id="b">
            <path d="M73.381 96.337h33.944v29.138H73.381V96.337zm13.058 10.511c.776 1.521 1.658 3.235 2.363 4.955l.28.68c-.922 3.508-1.474 6.326-.981 8.147.133.475.683.763 1.272.763l.356-.005h.079c.797 0 1.172-1.015 1.215-1.41.071-.663-.236-1.785-.236-1.785 0 .452.018 1.185-.268 1.817-.332.731-.651 1.169-.936 1.237-.144-.095-.284-.295-.332-.679a9.9 9.9 0 01-.13-1.563c0-1.236.244-2.864.721-4.545.091.262.17.511.233.745.098.369.721 2.816.721 2.816s-.157-3.257-.376-4.241a22.74 22.74 0 00-.153-.626c.788-2.201 2.057-4.165 3.571-5.579.596-.558 1.351-1.008 2.064-1.419 1.468.21 2.826.317 3.977.317l.213-.001c1.588-.021 2.755-.256 3.226-.721.232-.227.327-.499.355-.806.008-.118-.051-.399-.067-.468.016.086.016.503-1.26.91-.53.17-1.303.247-2.247.247-.844 0-1.825-.062-2.889-.176 2.102-1.028 4.161-1.639 5.301-1.639.274 0 .496.035.652.109.197.096.435.422.435.422s-.141-.645-.244-.804a1.27 1.27 0 00-.626-.431 2.894 2.894 0 00-.718-.077c-1.558 0-4.306.777-6.75 2.173-3.224-.475-6.766-1.352-9.604-2.283-2.4-4.207-4.288-6.457-5.855-6.457-.254 0-.498.059-.736.178l-.627.315c-.256.147-.294.501-.235.789.2.974 1.419 2.44 3.87 3.903.264.161 1.439.781 1.439.781s-.871-.843-1.074-1.007c-1.956-1.603-3.4-3.619-3.364-4.402l.006-.068c1.663.237 4.154 3.619 7.359 9.888m1.015-.519a123.03 123.03 0 00-1.542-2.801c2.672 1.119 5.547 1.835 8.284 2.344-.368.254-.725.524-1.062.808-1.506 1.276-2.656 2.866-3.487 4.542a39.188 39.188 0 00-2.193-4.893"/>
        </clipPath>
        <clipPath id="c">
            <path d="M73.381 91.53h33.944v4.875H73.381V91.53z"/>
        </clipPath>
        <clipPath id="d">
            <path d="M88.101 120.63c-.493-1.821.059-4.639.981-8.147l-.28-.68c-.705-1.72-1.587-3.434-2.363-4.955-3.205-6.269-5.696-9.651-7.359-9.888l-.006.068c-.036.783 1.408 2.799 3.364 4.402.203.164 1.074 1.007 1.074 1.007s-1.175-.62-1.439-.781c-2.451-1.463-3.67-2.929-3.87-3.903-.059-.288-.021-.642.235-.789l.627-.315c.238-.119.482-.178.736-.178 1.567 0 3.455 2.25 5.855 6.457 2.838.931 6.38 1.808 9.604 2.283 2.444-1.396 5.192-2.173 6.75-2.173.281 0 .523.026.718.077.241.065.497.255.626.431.103.159.244.804.244.804s-.238-.326-.435-.422c-.156-.074-.378-.109-.652-.109-1.14 0-3.199.611-5.301 1.639 1.064.114 2.045.176 2.889.176.944 0 1.717-.077 2.247-.247 1.276-.407 1.276-.824 1.26-.91.016.069.075.35.067.468-.028.307-.123.579-.355.806-.471.465-1.638.7-3.226.721l-.213.001c-1.151 0-2.509-.107-3.977-.317-.713.411-1.468.861-2.064 1.419-1.514 1.414-2.783 3.378-3.571 5.579.054.212.106.417.153.626.219.984.376 4.241.376 4.241s-.623-2.447-.721-2.816a11.05 11.05 0 00-.233-.745c-.477 1.681-.721 3.309-.721 4.545a9.9 9.9 0 00.13 1.563c.048.384.188.584.332.679.285-.068.604-.506.936-1.237.286-.632.268-1.365.268-1.817 0 0 .307 1.122.236 1.785-.043.395-.418 1.41-1.215 1.41h-.079l-.356.005c-.589 0-1.139-.288-1.272-.763m-.647-14.301a39.188 39.188 0 012.193 4.893c.831-1.676 1.981-3.266 3.487-4.542.337-.284.694-.554 1.062-.808-2.737-.509-5.612-1.225-8.284-2.344a123.03 123.03 0 011.542 2.801"/>
        </clipPath>
        <clipPath id="f">
            <path d="M72.143 83.228H118.5V127.8H72.143V83.228z"/>
        </clipPath>
        <radialGradient spreadMethod="pad" gradientTransform="matrix(45.1249 0 0 -45.1249 74.973 125.501)" gradientUnits="userSpaceOnUse" id="a" fy="0" fx="0" r="1" cy="0" cx="0">
            <stop offset="0" stop-color="#fff"/>
            <stop offset=".81" stop-color="#ebeaea"/>
            <stop offset=".81" stop-color="#ebeaea"/>
            <stop offset="1" stop-color="#d4d3d4"/>
        </radialGradient>
        <radialGradient spreadMethod="pad" gradientTransform="matrix(56.40613 0 0 56.40613 1.913 -.705)" gradientUnits="userSpaceOnUse" xlink:href="#a" id="e" fy="0" fx="0" r="1" cy="0" cx="0"/>
    </defs>
    <path d="M-.077 41.76h42.43V-.673H-.077zm16.322-19.148c.97-1.902 2.073-4.044 2.955-6.195l.349-.85c-1.153-4.385-1.844-7.907-1.226-10.183.166-.594.853-.954 1.588-.954l.448.007h.082c1.007-.015 1.48 1.265 1.534 1.762.089.829-.295 2.231-.295 2.231 0-.566.023-1.48-.335-2.27-.416-.915-.814-1.46-1.17-1.547-.18.12-.355.369-.415.847-.124.672-.161 1.52-.161 1.955 0 1.544.304 3.58.901 5.68.113-.325.211-.637.29-.93.123-.46.901-3.518.901-3.518s-.196 4.07-.47 5.3c-.058.26-.123.518-.19.782.984 2.751 2.57 5.206 4.463 6.974.746.697 1.689 1.26 2.581 1.772 1.948-.278 3.741-.41 5.238-.393 1.985.026 3.442.32 4.032.9.289.283.406.625.443 1.007.008.149-.064.499-.085.586.02-.106.02-.628-1.573-1.137-1.255-.401-3.604-.389-6.422-.089 3.26 1.595 6.436 2.388 7.442 1.913.246-.12.545-.53.545-.53s-.177.807-.305 1.008a1.588 1.588 0 01-.784.537c-1.59.423-5.727-.558-9.335-2.62-4.03.595-8.456 1.69-12.003 2.855-3.487 6.11-6.108 8.916-8.24 7.848l-.784-.393c-.319-.183-.368-.627-.294-.988.249-1.216 1.774-3.049 4.838-4.877.33-.2 1.798-.977 1.798-.977s-1.087 1.053-1.342 1.26c-2.445 2.003-4.25 4.524-4.205 5.502l.009.085c2.077-.297 5.192-4.524 9.197-12.36m1.269.65a158.795 158.795 0 01-1.926 3.5c3.338-1.4 6.932-2.294 10.353-2.93-.46-.318-.906-.654-1.326-1.01-1.884-1.594-3.32-3.584-4.361-5.678a48.594 48.594 0 01-2.74 6.118" fill="url(#e)"/>
    <path d="M20.224 16.821c1.042 2.094 2.478 4.084 4.362 5.679.42.355.866.691 1.326 1.009-3.421.636-7.015 1.53-10.354 2.93.604-1.073 1.258-2.24 1.926-3.5a48.591 48.591 0 002.74-6.118zm-.342-12.714c-.735 0-1.35.481-1.516 1.075-.618 2.276 0 5.677 1.153 10.063l-.348.849c-.883 2.15-1.985 4.293-2.955 6.195-4.005 7.836-7.12 12.063-9.198 12.36l-.009-.085c-.045-.978 1.76-3.5 4.205-5.503.255-.206 1.607-.98 1.607-.98s-1.733.498-2.063.698c-3.064 1.828-4.589 3.66-4.837 4.877-.074.361-.025.805.293.988l.784.393c2.133 1.068 4.754-1.739 8.24-7.849 3.548-1.163 7.974-2.26 12.004-2.853 3.607 2.061 7.745 3.042 9.335 2.619.302-.08.621-.318.784-.537.56-.363.644-.895.62-.886 0 0-.614.288-.86.408-1.007.475-4.183-.318-7.443-1.913 2.819-.3 5.168-.312 6.423.089 1.593.509 1.811 1.055 1.79 1.162.021-.088-.124-.462-.133-.611-.036-.382-.154-.724-.442-1.006-.59-.581-2.048-.875-4.033-.901-1.496-.017-3.29.115-5.237.393-.893-.512-1.835-1.075-2.582-1.772-1.892-1.768-3.478-4.223-4.463-6.974.067-.264.132-.521.19-.781.275-1.231.759-5.313.759-5.313s-1.067 3.07-1.19 3.53c-.078.293-.177.605-.29.93-.597-2.1-.9-4.136-.9-5.68 0-.436.037-1.283.16-1.955.06-.478.26-.606.44-.726.356.086.73.511 1.146 1.425.357.79.625 1.874.625 2.44 0 0 .093-1.571.005-2.4-.054-.497-.528-1.778-1.534-1.763h-.083z" fill="gray"/>
    <path d="M20.488 17.1c1.041 2.094 2.478 4.084 4.361 5.68.42.354.867.69 1.327 1.008-3.422.636-7.015 1.531-10.354 2.93.604-1.073 1.257-2.24 1.926-3.5a48.591 48.591 0 002.74-6.118zm-.342-12.713c-.735 0-1.423.36-1.589.953-.618 2.277.074 5.798 1.226 10.184l-.349.849c-.882 2.151-1.985 4.294-2.955 6.195-4.005 7.836-7.12 12.064-9.197 12.36l-.009-.085c-.045-.978 1.76-3.499 4.205-5.503.255-.206 1.343-1.258 1.343-1.258s-1.47.776-1.8.976c-3.063 1.829-4.588 3.661-4.837 4.877-.073.362-.025.805.294.988l.784.394c2.132 1.067 4.754-1.74 8.24-7.85 3.547-1.163 7.974-2.26 12.004-2.853 3.607 2.061 7.745 3.043 9.335 2.619.302-.08.62-.318.783-.536.128-.202.305-1.008.305-1.008s-.298.409-.545.529c-1.006.475-4.182-.318-7.442-1.913 2.819-.3 5.167-.312 6.422.089 1.594.509 1.594 1.031 1.573 1.138.021-.088.094-.438.085-.587-.036-.382-.154-.723-.443-1.006-.59-.581-2.047-.875-4.032-.901-1.496-.016-3.29.115-5.238.394-.892-.513-1.835-1.075-2.58-1.773-1.893-1.767-3.48-4.223-4.465-6.974.068-.264.133-.521.192-.781.273-1.231.47-5.301.47-5.301s-.78 3.057-.902 3.519c-.078.292-.177.604-.29.93-.597-2.1-.9-4.137-.9-5.68 0-.437.037-1.284.16-1.955.06-.48.235-.728.415-.848.357.086.754.633 1.17 1.546.358.79.335 1.705.335 2.272 0 0 .384-1.403.295-2.232-.053-.497-.527-1.777-1.533-1.762h-.083z" fill="#d40000"/>
    <g>
        <g clip-path="url(#f)" transform="matrix(1.25 0 0 -1.25 -91.542 156.02)" fill="gray">
            <path d="M103.029 102.048h.075c.083 0 .154.025.154.097 0 .057-.036.097-.143.097a.378.378 0 01-.086-.008zm0-.336h-.111v.598c.06.01.125.017.208.017.1 0 .15-.017.189-.046a.153.153 0 00.06-.126c0-.075-.052-.121-.117-.143v-.007c.054-.021.083-.068.1-.143.018-.093.029-.13.044-.15h-.115a.413.413 0 00-.047.157c-.014.065-.053.093-.14.093h-.071zm.1.784a.458.458 0 01-.454-.47c0-.264.196-.472.46-.472.259-.004.449.208.449.469 0 .26-.19.473-.451.473zm.007.1a.568.568 0 00.577-.57.57.57 0 00-.58-.576.574.574 0 100 1.146z"/>
            <path d="M93.134 106.679c-1.507 1.276-2.655 2.868-3.488 4.543a39.085 39.085 0 00-2.192-4.894 126.871 126.871 0 00-1.542-2.8l.105.043c.454.807.94 1.677 1.437 2.614a39.02 39.02 0 012.192 4.894c.833-1.675 1.981-3.267 3.488-4.543.288-.243.593-.472.904-.693l.157.03c-.368.253-.724.523-1.06.806M89.584 121.104c.284-.07.603-.506.935-1.236.248-.547.267-1.166.268-1.617 0 .456.007 1.152-.268 1.76-.332.73-.651 1.167-.935 1.236-.145-.096-.285-.295-.332-.677a9.82 9.82 0 01-.13-1.564v-.068c.004.364.037.987.13 1.488.047.383.187.582.332.678M90.787 118.05s.265.965.246 1.634c-.017-.653-.244-1.483-.246-1.49v-.144M79.074 97.028l.004-.039c.082.845 1.485 2.761 3.36 4.297.204.165 1.075 1.007 1.075 1.007l-.333-.176a19.7 19.7 0 00-.742-.687c-1.956-1.603-3.4-3.62-3.364-4.402M103.606 104.478c.016.085.016.503-1.26.91-1.003.32-2.882.31-5.136.07.082-.04.164-.08.245-.117 2.145.214 3.925.212 4.892-.097 1.275-.407 1.275-.825 1.259-.91.016.07.075.35.067.469l-.004.038a3.71 3.71 0 00-.063-.363" fill-rule="evenodd"/>
            <path d="M103.355 103.545a1.272 1.272 0 00-.627-.43c-1.272-.338-4.582.447-7.468 2.096-3.224-.476-6.765-1.352-9.604-2.283-2.788-4.889-4.885-7.133-6.591-6.279l-.627.315c-.17.096-.242.284-.255.484-.016-.248.046-.508.255-.628l.627-.315c1.706-.853 3.803 1.391 6.59 6.28 2.84.93 6.38 1.807 9.605 2.282 2.886-1.648 6.196-2.433 7.468-2.095.242.065.497.254.627.43.102.16.244.805.244.805l-.05-.063c-.05-.203-.13-.498-.194-.599M89.082 112.483c-.68 2.587-1.157 4.795-1.164 6.508-.02-1.713.455-3.943 1.141-6.563zM90.795 117.877l-.009-.036c-.036-.691-.178-3.215-.366-4.062a22.616 22.616 0 00-.153-.624c.006-.02.014-.038.021-.057.046.18.091.359.132.538.22.985.375 4.24.375 4.24" fill-rule="evenodd"/>
        </g>
        <path d="M37.244 28.468h.093c.104 0 .193-.031.193-.121 0-.071-.045-.121-.179-.121a.473.473 0 00-.107.01zm0 .42h-.14v-.747c.077-.013.157-.022.26-.022.126 0 .188.022.237.058.045.031.076.09.076.157 0 .094-.066.152-.147.18v.008c.067.026.104.085.126.179.021.116.035.16.054.187h-.144c-.022-.026-.04-.094-.059-.196-.017-.081-.066-.116-.173-.116h-.09zm.125-.98a.573.573 0 00-.568.586c0 .332.245.592.576.592.323.005.56-.26.56-.587 0-.326-.237-.59-.563-.59zm.008-.125a.71.71 0 01.722.711.713.713 0 01-.725.722.717.717 0 01-.73-.722c0-.397.322-.71.73-.71z" fill="#ed1c24"/>
    </g>
</svg>
