<svg width="256" height="256" viewBox="0 0 2027.52 2027.52" xmlns="http://www.w3.org/2000/svg">
    <rect transform="scale(7.92)" width="256" height="256" rx="0" ry="0" fill="none"/>
    <path d="M2027.5 253.42v1299c0 126.42-92.536 221.66-208.19 221.66H275.41c-190.97 0-275.46-81.798-275.46-323.86V517.04h267.39V253.45h1760.1zM267.4 644.56H127.54v805.63c0 123.73 29.587 182.9 67.242 182.9 45.725 0 72.622-59.173 72.622-182.9zM1900 380.96H394.9v1069.2c0 86.07-16.138 147.93-40.345 196.35h1464.8c48.414 0 80.691-56.484 80.691-94.139zM985.51 909.69H612.24v-48.414h373.27zm0 158.69H612.24v-48.414h373.27zm0 153.31H612.24v-48.414h373.27zm0 147.93H612.24v-48.414h373.27zM695.04 611.14h895.65v89.691H695.04zM1120 861.27h572.89v457.45H1120z"/>
</svg>
